HIERARCHY
ROOT Hips
{
	OFFSET 0.000000 1.471914 24.280096
	CHANNELS 6 Xposition Yposition Zposition Xrotation Yrotation Zrotation
	JOINT Spine
	{
		OFFSET 0.000000 0.900110 1.860670
		CHANNELS 6 Xposition Yposition Zposition Xrotation Yrotation Zrotation
		JOINT Spine1
		{
			OFFSET 0.000000 0.400320 2.270309
			CHANNELS 6 Xposition Yposition Zposition Xrotation Yrotation Zrotation
			JOINT Spine2
			{
				OFFSET 0.000000 0.200920 2.296560
				CHANNELS 6 Xposition Yposition Zposition Xrotation Yrotation Zrotation
				JOINT Spine3
				{
					OFFSET 0.000000 0.000000 2.305330
					CHANNELS 6 Xposition Yposition Zposition Xrotation Yrotation Zrotation
					JOINT Neck
					{
						OFFSET 0.000000 -0.864490 6.051487
						CHANNELS 6 Xposition Yposition Zposition Xrotation Yrotation Zrotation
						JOINT Head
						{
							OFFSET 0.000000 -0.550429 3.121674
							CHANNELS 6 Xposition Yposition Zposition Xrotation Yrotation Zrotation
							End Site
							{
								OFFSET 0.000000 0.000000 3.731750
							}
						}
					}
					JOINT RightShoulder
					{
						OFFSET -0.788280 -1.313800 4.256718
						CHANNELS 6 Xposition Yposition Zposition Xrotation Yrotation Zrotation
						JOINT RightArm
						{
							OFFSET -3.915130 0.000000 0.000000
							CHANNELS 6 Xposition Yposition Zposition Xrotation Yrotation Zrotation
							JOINT RightForeArm
							{
								OFFSET -6.914910 0.000000 0.000000
								CHANNELS 6 Xposition Yposition Zposition Xrotation Yrotation Zrotation
								JOINT RightHand
								{
									OFFSET -6.096219 0.000000 0.000000
									CHANNELS 6 Xposition Yposition Zposition Xrotation Yrotation Zrotation
									JOINT RightHandEnd
									{
										OFFSET -1.749950 0.000000 0.000000
										CHANNELS 6 Xposition Yposition Zposition Xrotation Yrotation Zrotation
										End Site
										{
											OFFSET -1.749950 0.000000 0.000000
										}
									}
									JOINT RightHandThumb1
									{
										OFFSET -0.699980 -1.166630 -0.466648
										CHANNELS 6 Xposition Yposition Zposition Xrotation Yrotation Zrotation
										End Site
										{
											OFFSET -1.690319 -0.452920 0.000000
										}
									}
								}
							}
						}
					}
					JOINT LeftShoulder
					{
						OFFSET 0.788280 -1.313800 4.256718
						CHANNELS 6 Xposition Yposition Zposition Xrotation Yrotation Zrotation
						JOINT LeftArm
						{
							OFFSET 3.915130 0.000000 0.000000
							CHANNELS 6 Xposition Yposition Zposition Xrotation Yrotation Zrotation
							JOINT LeftForeArm
							{
								OFFSET 6.914910 0.000000 0.000000
								CHANNELS 6 Xposition Yposition Zposition Xrotation Yrotation Zrotation
								JOINT LeftHand
								{
									OFFSET 6.096219 0.000000 0.000000
									CHANNELS 6 Xposition Yposition Zposition Xrotation Yrotation Zrotation
									JOINT LeftHandEnd
									{
										OFFSET 1.749950 0.000000 0.000000
										CHANNELS 6 Xposition Yposition Zposition Xrotation Yrotation Zrotation
										End Site
										{
											OFFSET 1.749950 0.000000 0.000000
										}
									}
									JOINT LeftHandThumb1
									{
										OFFSET 0.699980 -1.166630 -0.466648
										CHANNELS 6 Xposition Yposition Zposition Xrotation Yrotation Zrotation
										End Site
										{
											OFFSET 1.690319 -0.452920 0.000000
										}
									}
								}
							}
						}
					}
				}
			}
		}
	}
	JOINT RightUpLeg
	{
		OFFSET -2.338570 -0.252550 -0.551512
		CHANNELS 6 Xposition Yposition Zposition Xrotation Yrotation Zrotation
		JOINT RightLeg
		{
			OFFSET 0.000000 0.000000 -10.744959
			CHANNELS 6 Xposition Yposition Zposition Xrotation Yrotation Zrotation
			JOINT RightFoot
			{
				OFFSET 0.000000 -0.000001 -10.930849
				CHANNELS 6 Xposition Yposition Zposition Xrotation Yrotation Zrotation
				JOINT RightToeBase
				{
					OFFSET 0.000000 -4.087269 -1.487650
					CHANNELS 6 Xposition Yposition Zposition Xrotation Yrotation Zrotation
					End Site
					{
						OFFSET 0.000000 -1.891870 0.000000
					}
				}
			}
		}
	}
	JOINT LeftUpLeg
	{
		OFFSET 2.338570 -0.252550 -0.551512
		CHANNELS 6 Xposition Yposition Zposition Xrotation Yrotation Zrotation
		JOINT LeftLeg
		{
			OFFSET 0.000000 0.000000 -10.744959
			CHANNELS 6 Xposition Yposition Zposition Xrotation Yrotation Zrotation
			JOINT LeftFoot
			{
				OFFSET 0.000000 -0.000001 -10.930849
				CHANNELS 6 Xposition Yposition Zposition Xrotation Yrotation Zrotation
				JOINT LeftToeBase
				{
					OFFSET 0.000000 -4.087269 -1.487650
					CHANNELS 6 Xposition Yposition Zposition Xrotation Yrotation Zrotation
					End Site
					{
						OFFSET 0.000000 -1.891870 0.000000
					}
				}
			}
		}
	}
}
MOTION
Frames: 6
Frame Time: 0.041667
0.000094 26.558928 40.228710 -11.703073 -0.187336 -1.572607 -0.000005 0.900100 1.860705 14.720653 7.308422 -1.552115 -0.000001 0.400303 2.270302 -0.000005 -0.000001 0.000002 0.000013 0.200933 2.296549 0.000001 -0.000000 0.000003 -0.000000 -0.000017 2.305327 0.000000 -0.000002 9.597908 -0.000007 -0.864449 6.051506 5.772829 -6.767300 -192.355489 0.000009 -0.550434 3.121696 0.000000 -0.000001 -0.000002 -0.788289 -1.313762 4.256759 -130.472364 35.957558 -77.588647 -3.915120 -0.000019 -0.000015 0.000001 0.000002 -0.000000 -6.914874 0.000009 0.000006 -0.000012 -0.000016 -107.349052 -6.096202 -0.000007 0.000021 -0.000029 -0.000041 -0.000055 -1.749942 0.000019 -0.000012 -0.000001 0.000003 -0.000001 -0.699994 -1.166614 -0.466645 0.000006 0.000007 -0.000006 0.788257 -1.313800 4.256725 -150.241404 -56.962019 51.359047 3.915155 -0.000006 0.000015 0.000001 0.000003 -0.000003 6.914899 -0.000007 -0.000010 -0.000022 0.000013 124.223683 6.096230 0.000039 0.000013 -0.000025 0.000036 0.000038 1.749923 0.000018 0.000001 0.000001 -0.000000 -0.000001 0.699983 -1.166625 -0.466657 0.000003 -0.000002 -0.000012 -2.338574 -0.252550 -0.551504 16.083482 -3.379064 -1.711722 0.000007 -0.000007 -10.744964 13.913116 3.945183 -2.220992 -0.000006 -0.000006 -10.930863 -0.000015 -0.000004 0.000001 0.000012 -4.087263 -1.487640 0.000004 0.000000 0.000001 2.338567 -0.252550 -0.551443 12.462000 -6.176453 -1.349178 0.000002 -0.000004 -10.744925 10.146779 1.067810 -2.166289 0.000007 0.000004 -10.930859 0.000005 -0.000003 0.000001 -0.000010 -4.087241 -1.487652 -0.000002 -0.000000 0.000001 
0.000090 26.558924 40.228683 -11.393111 0.020851 -1.674577 -0.000005 0.900100 1.860705 14.815015 8.298239 -1.452016 -0.000002 0.400303 2.270306 -0.000005 0.000000 0.000002 0.000013 0.200935 2.296547 0.000001 -0.000000 0.000002 -0.000001 -0.000017 2.305334 0.000000 -0.000002 9.497822 -0.000007 -0.864452 6.051506 4.573310 -5.722747 -191.480023 0.000009 -0.550430 3.121696 0.000002 -0.000001 -0.000001 -0.788288 -1.313768 4.256761 -131.792557 36.805939 -76.104208 -3.915118 -0.000017 -0.000004 -0.000002 -0.000004 -0.000003 -6.914866 0.000010 0.000009 -0.000010 -0.000015 -106.906592 -6.096199 -0.000002 0.000028 -0.000032 -0.000039 -0.000054 -1.749940 0.000014 -0.000015 -0.000002 -0.000002 0.000002 -0.699995 -1.166615 -0.466641 0.000011 0.000005 -0.000007 0.788258 -1.313800 4.256732 -146.188916 -56.298951 53.531379 3.915143 -0.000003 0.000015 -0.000001 0.000002 -0.000000 6.914895 -0.000011 -0.000010 -0.000027 0.000012 124.324538 6.096228 0.000043 0.000008 -0.000023 0.000038 0.000041 1.749931 0.000022 -0.000011 0.000000 -0.000003 -0.000000 0.699988 -1.166624 -0.466664 -0.000003 -0.000005 -0.000011 -2.338574 -0.252547 -0.551509 16.044309 -4.037144 -1.587012 0.000007 -0.000007 -10.744964 13.439608 2.879772 -2.207185 -0.000006 -0.000008 -10.930863 -0.000015 -0.000004 0.000001 0.000012 -4.087263 -1.487639 0.000003 0.000000 0.000001 2.338567 -0.252551 -0.551446 11.550068 -7.157202 -1.165376 0.000002 -0.000003 -10.744919 10.823190 1.342016 -2.418350 0.000007 0.000010 -10.930864 0.000003 -0.000003 0.000001 -0.000010 -4.087237 -1.487648 -0.000002 -0.000001 0.000001 
0.000080 26.558928 40.228668 -11.274674 0.431980 -2.916161 -0.000005 0.900099 1.860704 14.974257 9.022784 -1.441726 -0.000002 0.400305 2.270306 -0.000005 -0.000001 0.000002 0.000015 0.200935 2.296545 0.000001 -0.000000 0.000003 0.000000 -0.000018 2.305331 0.000004 -0.000003 8.802547 -0.000006 -0.864450 6.051505 4.229313 -5.489472 -188.840018 0.000008 -0.550432 3.121700 -0.000001 -0.000001 -0.000002 -0.788288 -1.313762 4.256760 -131.117775 36.337976 -74.407439 -3.915112 -0.000018 -0.000011 0.000001 -0.000001 0.000001 -6.914865 0.000010 0.000006 -0.000012 -0.000019 -107.272465 -6.096201 -0.000010 0.000025 -0.000029 -0.000037 -0.000055 -1.749944 0.000016 -0.000011 -0.000005 0.000001 0.000003 -0.699993 -1.166621 -0.466641 0.000003 0.000009 -0.000009 0.788259 -1.313800 4.256732 -140.836957 -55.598375 56.618303 3.915151 -0.000004 0.000019 -0.000001 0.000003 0.000000 6.914898 -0.000009 -0.000006 -0.000027 0.000012 126.551480 6.096229 0.000041 0.000010 -0.000023 0.000041 0.000043 1.749932 0.000027 -0.000011 -0.000003 -0.000003 -0.000001 0.699986 -1.166625 -0.466665 -0.000003 -0.000002 -0.000007 -2.338574 -0.252548 -0.551509 16.145466 -4.711870 -1.570131 0.000007 -0.000008 -10.744963 13.266047 2.956175 -2.311777 -0.000006 -0.000001 -10.930863 -0.000007 -0.000004 0.000002 0.000012 -4.087265 -1.487642 -0.000000 0.000000 0.000000 2.338567 -0.252554 -0.551447 11.199018 -7.857134 -1.112711 0.000001 -0.000005 -10.744926 11.176453 1.799928 -2.613962 0.000007 0.000005 -10.930862 0.000003 -0.000005 0.000002 -0.000010 -4.087236 -1.487652 -0.000007 -0.000001 0.000000 
0.000077 26.558924 40.228649 -11.199522 0.545406 -4.185745 -0.000005 0.900100 1.860708 15.084572 9.727110 -1.432426 -0.000002 0.400304 2.270304 -0.000005 -0.000001 0.000002 0.000015 0.200937 2.296543 0.000000 0.000001 0.000002 -0.000001 -0.000021 2.305327 0.000000 -0.000003 8.347151 -0.000007 -0.864449 6.051502 3.774217 -4.346378 -186.980049 0.000009 -0.550435 3.121693 0.000001 -0.000001 -0.000002 -0.788287 -1.313764 4.256757 -132.338918 35.754463 -71.017957 -3.915108 -0.000021 -0.000011 -0.000000 -0.000002 -0.000001 -6.914869 0.000009 0.000010 -0.000015 -0.000019 -108.611394 -6.096201 -0.000005 0.000025 -0.000032 -0.000040 -0.000055 -1.749944 0.000011 -0.000011 -0.000007 0.000001 0.000004 -0.699994 -1.166620 -0.466636 0.000003 0.000004 -0.000009 0.788258 -1.313798 4.256725 -136.299225 -55.020951 59.756772 3.915163 -0.000005 0.000019 0.000001 0.000001 -0.000002 6.914896 -0.000010 -0.000006 -0.000026 0.000013 129.046234 6.096228 0.000035 0.000007 -0.000021 0.000042 0.000039 1.749927 0.000023 -0.000011 0.000003 -0.000003 -0.000001 0.699983 -1.166622 -0.466668 0.000001 -0.000004 -0.000009 -2.338574 -0.252549 -0.551511 16.461033 -4.775680 -1.576628 0.000007 -0.000004 -10.744960 12.884941 2.397815 -2.244308 -0.000006 -0.000006 -10.930861 -0.000009 -0.000004 0.000003 0.000012 -4.087263 -1.487640 0.000006 0.000001 0.000000 2.338567 -0.252555 -0.551445 10.994990 -8.173079 -1.077965 0.000002 -0.000005 -10.744925 11.667171 1.854239 -2.776887 0.000007 0.000008 -10.930858 0.000005 -0.000002 0.000003 -0.000010 -4.087238 -1.487651 0.000004 0.000001 0.000000 
0.000069 26.558922 40.228619 -10.975921 1.321375 -5.801749 -0.000005 0.900099 1.860704 15.007869 9.348552 -1.283537 -0.000001 0.400306 2.270306 -0.000006 0.000002 0.000001 0.000014 0.200934 2.296549 -0.000000 -0.000001 0.000003 0.000000 -0.000020 2.305326 0.000002 -0.000004 7.327870 -0.000007 -0.864448 6.051498 3.543455 -3.767150 -185.414637 0.000010 -0.550435 3.121693 0.000001 -0.000001 -0.000001 -0.788287 -1.313764 4.256757 -133.760048 36.208086 -67.287247 -3.915112 -0.000018 -0.000011 -0.000002 -0.000002 -0.000001 -6.914865 0.000005 0.000007 -0.000008 -0.000016 -111.312781 -6.096202 0.000000 0.000030 -0.000031 -0.000044 -0.000055 -1.749946 0.000013 -0.000015 -0.000000 0.000003 0.000003 -0.699997 -1.166618 -0.466643 0.000008 0.000002 -0.000007 0.788257 -1.313798 4.256726 -132.624898 -54.199655 62.737057 3.915153 -0.000001 0.000023 -0.000003 0.000001 -0.000004 6.914897 -0.000009 -0.000010 -0.000028 0.000013 129.866662 6.096226 0.000038 0.000013 -0.000021 0.000038 0.000028 1.749931 0.000020 -0.000008 -0.000001 -0.000000 0.000003 0.699984 -1.166627 -0.466658 0.000001 0.000000 -0.000013 -2.338573 -0.252552 -0.551512 16.419389 -5.365029 -1.416072 0.000007 -0.000006 -10.744966 13.013535 2.172600 -2.282333 -0.000006 -0.000003 -10.930862 -0.000012 -0.000005 0.000000 0.000012 -4.087258 -1.487641 0.000006 0.000001 -0.000000 2.338566 -0.252554 -0.551449 10.839588 -8.875199 -0.957796 0.000002 -0.000007 -10.744928 11.857670 1.346164 -2.862224 0.000007 0.000003 -10.930864 0.000002 -0.000002 0.000001 -0.000011 -4.087237 -1.487653 -0.000002 0.000001 0.000000 
0.000048 26.558920 40.228615 -11.237078 1.899738 -7.807872 -0.000005 0.900099 1.860698 15.040063 9.172594 -1.241789 -0.000002 0.400305 2.270308 -0.000006 0.000000 0.000004 0.000014 0.200934 2.296549 0.000000 0.000000 0.000002 0.000000 -0.000021 2.305327 0.000002 -0.000004 6.331686 -0.000008 -0.864449 6.051506 3.202883 -2.814344 -181.988382 0.000009 -0.550434 3.121689 0.000001 -0.000001 -0.000001 -0.788290 -1.313769 4.256763 -136.054841 37.488156 -63.543183 -3.915111 -0.000019 -0.000008 -0.000000 -0.000004 -0.000001 -6.914864 0.000007 0.000002 -0.000011 -0.000015 -112.364992 -6.096201 -0.000007 0.000025 -0.000032 -0.000045 -0.000050 -1.749947 0.000010 -0.000015 0.000001 0.000003 0.000005 -0.700000 -1.166619 -0.466640 0.000008 0.000005 -0.000006 0.788257 -1.313798 4.256733 -129.665787 -52.489386 65.875098 3.915149 -0.000005 0.000015 -0.000004 0.000003 -0.000001 6.914899 -0.000005 -0.000013 -0.000026 0.000013 129.339508 6.096227 0.000028 0.000010 -0.000022 0.000039 0.000034 1.749931 0.000026 -0.000011 -0.000003 -0.000001 0.000002 0.699983 -1.166622 -0.466664 -0.000004 -0.000002 -0.000010 -2.338574 -0.252552 -0.551512 17.128082 -5.431153 -1.423786 0.000007 -0.000003 -10.744959 12.933752 1.854967 -2.244111 -0.000006 -0.000003 -10.930863 -0.000012 -0.000006 0.000003 0.000013 -4.087263 -1.487639 0.000003 0.000001 -0.000000 2.338566 -0.252555 -0.551452 10.972243 -9.227514 -0.936718 0.000003 -0.000005 -10.744927 12.891562 1.434848 -3.148742 0.000008 0.000009 -10.930861 0.000007 -0.000003 0.000001 -0.000011 -4.087237 -1.487651 0.000000 0.000001 0.000001 
